# xmcd
#
# Track frame offsets:
#	150
#	23322
#	35705
#	54665
#	57055
#	78080
#	100710
#	120670
#	144929
#	161382
#	207099
#	240921
#	262269
#	278372
#
# Disc length: 4275 seconds
#
# Revision: 1
# Processed by: cddbd v1.5.2PL0 Copyright (c) Steve Scherf et al.
# Submitted via: audiograbber 1.83.01
#
DISCID=a610b10e
DTITLE=23 Skidoo - Seven Songs
DYEAR=1982
DGENRE=Rock
TTITLE0=Kundalini
TTITLE1=Vegas El Bandito
TTITLE2=Mary's Operation
TTITLE3=Lock Groove
TTITLE4=New Testament
TTITLE5=IV
TTITLE6=Porno Base
TTITLE7=Quiet Village
TTITLE8=Last Words (7")
TTITLE9=The Gospel Comes To New Guinea
TTITLE10=Tearing Up the Plans Pt. 1
TTITLE11=Tearing Up the Plans Pt. 2
TTITLE12=Just Like Everybody
TTITLE13=Gregouka
EXTD=
EXTT0=
EXTT1=
EXTT2=
EXTT3=
EXTT4=
EXTT5=
EXTT6=
EXTT7=
EXTT8=
EXTT9=
EXTT10=
EXTT11=
EXTT12=
EXTT13=
PLAYORDER=
